<svg width="36" height="34" viewBox="0 0 36 34" fill="none" xmlns="http://www.w3.org/2000/svg">
<path d="M7.35329 28.123C7.35329 28.159 7.35329 28.159 7.35329 28.1949H7.42538C7.38934 27.8353 7.31725 27.3678 7.20911 26.7564H2.27084V2.51615H27.9715V6.86788C28.2238 6.83192 28.4761 6.79595 28.7645 6.79595C28.9807 6.79595 29.197 6.83192 29.4133 6.86788V1.11353H0.82901V28.1949H7.38934C7.38934 28.159 7.38934 28.159 7.35329 28.123Z" fill="#2273AE"/>
<path d="M7.46145 28.8063H0.180206V0.466064H29.99V7.55112L29.0168 7.44322C28.7645 7.40726 28.5122 7.40726 28.2598 7.44322L27.3227 7.58708V3.16342H2.88364V26.1449H6.74053V23.3396L7.49749 26.1449H7.78586L8.18236 28.8422H7.46145V28.8063ZM1.44181 27.5475H6.70449L6.66844 27.3677H1.62204V1.86869H28.5843V6.14849C28.6564 6.14849 28.6924 6.14849 28.7645 6.14849V1.72483H1.44181V27.5475Z" fill="#2273AE"/>
<path d="M6.6684 6.14868V6.86798V32.5108V33.2301H7.38931H34.5318H35.2527V32.5108V6.86798V6.14868H34.5318H7.38931H6.6684ZM8.11023 7.58727H33.8109V31.8275H8.11023V7.58727Z" fill="#2273AE"/>
<path d="M35.8655 33.8773H6.01959V5.53711H35.8294V33.8773H35.8655ZM7.28119 32.6185H34.6039V6.79588H7.28119V32.6185ZM34.4236 32.4387H7.46142V6.93974H34.4236V32.4387ZM8.72302 31.18H33.162V8.1985H8.72302V31.18Z" fill="#2273AE"/>
<path d="M22.5286 16.5423H19.1043C18.7799 16.5423 18.5276 16.2905 18.5276 15.9668V9.13354C18.5276 8.80986 18.7799 8.55811 19.1043 8.55811H22.5286C22.853 8.55811 23.1054 8.80986 23.1054 9.13354V15.9668C23.1054 16.2905 22.853 16.5423 22.5286 16.5423ZM19.681 15.4274H21.9519V9.74494H19.681V15.4274Z" fill="#2273AE"/>
<path d="M20.7984 18.8441H19.6809C19.3565 18.8441 19.1042 18.5924 19.1042 18.2687C19.1042 17.945 19.3565 17.6932 19.6809 17.6932H20.8344C21.1588 17.6932 21.4111 17.945 21.4111 18.2687C21.3751 18.5564 21.1228 18.8441 20.7984 18.8441Z" fill="#2273AE"/>
<path d="M21.9518 19.9592H20.7984C20.4739 19.9592 20.2216 19.7075 20.2216 19.3838C20.2216 19.0601 20.4739 18.8083 20.7984 18.8083H21.9518C22.2762 18.8083 22.5285 19.0601 22.5285 19.3838C22.5285 19.7075 22.2762 19.9592 21.9518 19.9592Z" fill="#2273AE"/>
<path d="M21.9518 17.6934H20.7984C20.4739 17.6934 20.2216 17.4416 20.2216 17.1179C20.2216 16.7942 20.4739 16.5425 20.7984 16.5425H21.9518C22.2762 16.5425 22.5285 16.7942 22.5285 17.1179C22.5285 17.4416 22.2762 17.6934 21.9518 17.6934Z" fill="#2273AE"/>
<path d="M20.7984 21.1099H19.6809C19.3565 21.1099 19.1042 20.8581 19.1042 20.5344C19.1042 20.2107 19.3565 19.959 19.6809 19.959H20.8344C21.1588 19.959 21.4111 20.2107 21.4111 20.5344C21.3751 20.8581 21.1228 21.1099 20.7984 21.1099Z" fill="#2273AE"/>
<path d="M21.9518 22.261H20.7984C20.4739 22.261 20.2216 22.0092 20.2216 21.6855C20.2216 21.3619 20.4739 21.1101 20.7984 21.1101H21.9518C22.2762 21.1101 22.5285 21.3619 22.5285 21.6855C22.5285 21.9733 22.2762 22.261 21.9518 22.261Z" fill="#2273AE"/>
<path d="M20.7984 23.3757H19.6809C19.3565 23.3757 19.1042 23.124 19.1042 22.8003C19.1042 22.4766 19.3565 22.2249 19.6809 22.2249H20.8344C21.1588 22.2249 21.4111 22.4766 21.4111 22.8003C21.3751 23.124 21.1228 23.3757 20.7984 23.3757Z" fill="#2273AE"/>
<path d="M21.9518 24.5264H20.7984C20.4739 24.5264 20.2216 24.2746 20.2216 23.9509C20.2216 23.6272 20.4739 23.3755 20.7984 23.3755H21.9518C22.2762 23.3755 22.5285 23.6272 22.5285 23.9509C22.5285 24.2746 22.2762 24.5264 21.9518 24.5264Z" fill="#2273AE"/>
<path d="M20.7984 25.6415H19.6809C19.3565 25.6415 19.1042 25.3897 19.1042 25.066C19.1042 24.7424 19.3565 24.4906 19.6809 24.4906H20.8344C21.1588 24.4906 21.4111 24.7424 21.4111 25.066C21.4111 25.3897 21.1228 25.6415 20.7984 25.6415Z" fill="#2273AE"/>
<path d="M21.9518 26.7922H20.7984C20.4739 26.7922 20.2216 26.5405 20.2216 26.2168C20.2216 25.8931 20.4739 25.6414 20.7984 25.6414H21.9518C22.2762 25.6414 22.5285 25.8931 22.5285 26.2168C22.5285 26.5405 22.2762 26.7922 21.9518 26.7922Z" fill="#2273AE"/>
<path d="M20.7984 27.9432H19.6809C19.3565 27.9432 19.1042 27.6915 19.1042 27.3678C19.1042 27.0441 19.3565 26.7924 19.6809 26.7924H20.8344C21.1588 26.7924 21.4111 27.0441 21.4111 27.3678C21.3751 27.6915 21.1228 27.9432 20.7984 27.9432Z" fill="#2273AE"/>
<path d="M21.9518 29.058H20.7984C20.4739 29.058 20.2216 28.8062 20.2216 28.4825C20.2216 28.1589 20.4739 27.9071 20.7984 27.9071H21.9518C22.2762 27.9071 22.5285 28.1589 22.5285 28.4825C22.5285 28.8062 22.2762 29.058 21.9518 29.058Z" fill="#2273AE"/>
<path d="M20.7984 30.2091H19.6809C19.3565 30.2091 19.1042 29.9573 19.1042 29.6337C19.1042 29.31 19.3565 29.0582 19.6809 29.0582H20.8344C21.1588 29.0582 21.4111 29.31 21.4111 29.6337C21.3751 29.9573 21.1228 30.2091 20.7984 30.2091Z" fill="#2273AE"/>
<path d="M21.9518 31.3597H20.7984C20.4739 31.3597 20.2216 31.108 20.2216 30.7843C20.2216 30.4606 20.4739 30.2089 20.7984 30.2089H21.9518C22.2762 30.2089 22.5285 30.4606 22.5285 30.7843C22.5285 31.108 22.2762 31.3597 21.9518 31.3597Z" fill="#2273AE"/>
</svg>
