<svg width="34" height="34" viewBox="0 0 34 34" fill="none" xmlns="http://www.w3.org/2000/svg">
<path d="M21.3215 33.0085C20.7088 33.0085 20.132 32.7927 19.6274 32.3971L8.9939 23.9094H2.97426C1.42429 23.9094 0.162689 22.6506 0.162689 21.1042V12.9042C0.162689 11.3577 1.42429 10.099 2.97426 10.099H9.02995L19.6634 1.57532C20.5285 0.891991 21.7181 0.820062 22.6913 1.32357C23.6645 1.82707 24.2052 2.83409 24.1692 3.94899V30.2032C24.1692 31.2822 23.5564 32.2532 22.5832 32.7567C22.1866 32.9006 21.7541 33.0085 21.3215 33.0085ZM3.73122 20.3129H9.24622C9.82295 20.3129 10.3636 20.4928 10.8683 20.8164L20.5646 28.5489V5.49547L11.0485 13.084C10.5078 13.5156 9.93109 13.6954 9.31831 13.6954H3.73122V20.3129ZM20.5646 3.8411V3.87706V3.8411Z" fill="#2273AE"/>
<path d="M27.269 10.8542C26.8725 10.4586 26.2597 10.4586 25.8272 10.8542C25.4307 11.2498 25.4307 11.8612 25.8272 12.2928C27.1248 13.5875 27.7737 15.2059 27.7737 17.0042C27.7737 18.8024 27.0527 20.4208 25.8272 21.6796C25.4307 22.0752 25.4307 22.6866 25.8272 23.1182C26.0435 23.334 26.2958 23.4419 26.5481 23.4419C26.8004 23.4419 27.0527 23.334 27.269 23.1182C28.8911 21.4998 29.8283 19.3059 29.8283 17.0042C29.8283 14.7024 28.8911 12.5086 27.269 10.8542Z" fill="#2273AE"/>
<path d="M29.9725 8.15694C29.576 7.76133 28.9632 7.76133 28.5306 8.15694C28.0981 8.55255 28.1341 9.16395 28.5306 9.59553C30.5132 11.5736 31.5945 14.199 31.5945 17.0043C31.5945 19.8095 30.5132 22.399 28.5306 24.413C28.1341 24.8086 28.1341 25.42 28.5306 25.8516C28.7469 26.0674 28.9992 26.1753 29.2516 26.1753C29.5039 26.1753 29.7562 26.0674 29.9725 25.8516C32.3875 23.5139 33.6491 20.349 33.6491 17.0043C33.6491 13.6595 32.3875 10.4946 29.9725 8.15694Z" fill="#2273AE"/>
</svg>
