<svg width="24" height="24" viewBox="0 0 24 24" fill="none" xmlns="http://www.w3.org/2000/svg">
<mask id="path-1-inside-1" fill="white">
<path fill-rule="evenodd" clip-rule="evenodd" d="M8.53518 3C8.20083 3 7.8886 3.1671 7.70313 3.4453L5.33333 7H3C2.44772 7 2 7.44772 2 8V20C2 20.5523 2.44772 21 3 21H21C21.5523 21 22 20.5523 22 20V8C22 7.44772 21.5523 7 21 7H18.6667L16.2969 3.4453C16.1114 3.1671 15.7992 3 15.4648 3H8.53518Z"/>
</mask>
<path d="M7.70313 3.4453L6.03903 2.3359V2.3359L7.70313 3.4453ZM5.33333 7V9H6.4037L6.99743 8.1094L5.33333 7ZM18.6667 7L17.0026 8.1094L17.5963 9H18.6667V7ZM16.2969 3.4453L14.6328 4.5547L14.6328 4.5547L16.2969 3.4453ZM9.36723 4.5547C9.18177 4.8329 8.86954 5 8.53518 5V1C7.53212 1 6.59543 1.5013 6.03903 2.3359L9.36723 4.5547ZM6.99743 8.1094L9.36723 4.5547L6.03903 2.3359L3.66923 5.8906L6.99743 8.1094ZM3 9H5.33333V5H3V9ZM4 8C4 8.55228 3.55229 9 3 9V5C1.34314 5 0 6.34315 0 8H4ZM4 20V8H0V20H4ZM3 19C3.55229 19 4 19.4477 4 20H0C0 21.6569 1.34315 23 3 23V19ZM21 19H3V23H21V19ZM20 20C20 19.4477 20.4477 19 21 19V23C22.6569 23 24 21.6569 24 20H20ZM20 8V20H24V8H20ZM21 9C20.4477 9 20 8.55229 20 8H24C24 6.34315 22.6569 5 21 5V9ZM18.6667 9H21V5H18.6667V9ZM14.6328 4.5547L17.0026 8.1094L20.3308 5.8906L17.961 2.3359L14.6328 4.5547ZM15.4648 5C15.1305 5 14.8182 4.8329 14.6328 4.5547L17.961 2.3359C17.4046 1.5013 16.4679 1 15.4648 1V5ZM8.53518 5H15.4648V1H8.53518V5Z" fill="#0F6CAE" mask="url(#path-1-inside-1)"/>
<circle cx="12" cy="12" r="4" stroke="#0F6CAE" stroke-width="2"/>
</svg>
