<svg width="34" height="30" viewBox="0 0 34 30" fill="none" xmlns="http://www.w3.org/2000/svg">
<g clip-path="url(#clip0)">
<mask id="path-1-inside-1" fill="white">
<path d="M33.3032 0H5.71307V1.38249H32.6065V19.3548H34V0.691244C34 0.304147 33.6934 0 33.3032 0Z"/>
</mask>
<path d="M33.3032 0H5.71307V1.38249H32.6065V19.3548H34V0.691244C34 0.304147 33.6934 0 33.3032 0Z" fill="white"/>
<path d="M5.71307 0V-3H2.71307V0H5.71307ZM5.71307 1.38249H2.71307V4.38249H5.71307V1.38249ZM32.6065 1.38249H35.6065V-1.61751H32.6065V1.38249ZM32.6065 19.3548H29.6065V22.3548H32.6065V19.3548ZM34 19.3548V22.3548H37V19.3548H34ZM33.3032 -3H5.71307V3H33.3032V-3ZM2.71307 0V1.38249H8.71307V0H2.71307ZM5.71307 4.38249H32.6065V-1.61751H5.71307V4.38249ZM29.6065 1.38249V19.3548H35.6065V1.38249H29.6065ZM32.6065 22.3548H34V16.3548H32.6065V22.3548ZM37 19.3548V0.691244H31V19.3548H37ZM37 0.691244C37 -1.37499 35.3279 -3 33.3032 -3V3C32.0589 3 31 1.98328 31 0.691244H37Z" fill="white" mask="url(#path-1-inside-1)"/>
<mask id="path-3-inside-2" fill="white">
<path d="M28.2869 4.97705H0.696721C0.306557 4.97705 0 5.2812 0 5.6683V24.3319C0 24.719 0.306557 25.0231 0.696721 25.0231H10.3672L13.9344 29.7236C14.0738 29.8895 14.2689 30.0001 14.4918 30.0001C14.7148 30.0001 14.9098 29.8895 15.0492 29.7236L18.5885 25.0231H28.259C28.6492 25.0231 28.9557 24.719 28.9557 24.3319V5.6683C28.9836 5.2812 28.677 4.97705 28.2869 4.97705ZM27.5902 23.6406H18.2541C18.0311 23.6406 17.8361 23.7512 17.6967 23.9171L14.4918 28.1476L11.2869 23.9171C11.1475 23.7512 10.9525 23.6406 10.7295 23.6406H1.39344V6.35954H27.5902V23.6406Z"/>
</mask>
<path d="M28.2869 4.97705H0.696721C0.306557 4.97705 0 5.2812 0 5.6683V24.3319C0 24.719 0.306557 25.0231 0.696721 25.0231H10.3672L13.9344 29.7236C14.0738 29.8895 14.2689 30.0001 14.4918 30.0001C14.7148 30.0001 14.9098 29.8895 15.0492 29.7236L18.5885 25.0231H28.259C28.6492 25.0231 28.9557 24.719 28.9557 24.3319V5.6683C28.9836 5.2812 28.677 4.97705 28.2869 4.97705ZM27.5902 23.6406H18.2541C18.0311 23.6406 17.8361 23.7512 17.6967 23.9171L14.4918 28.1476L11.2869 23.9171C11.1475 23.7512 10.9525 23.6406 10.7295 23.6406H1.39344V6.35954H27.5902V23.6406Z" fill="white"/>
<path d="M10.3672 25.0231L12.757 23.2095L11.8566 22.0231H10.3672V25.0231ZM13.9344 29.7236L11.5447 31.5372L11.5895 31.5963L11.6372 31.6531L13.9344 29.7236ZM15.0492 29.7236L17.3464 31.6531L17.3977 31.5919L17.4458 31.5282L15.0492 29.7236ZM18.5885 25.0231V22.0231H17.0921L16.192 23.2186L18.5885 25.0231ZM28.9557 5.6683L25.9635 5.45287L25.9557 5.56044V5.6683H28.9557ZM27.5902 23.6406V26.6406H30.5902V23.6406H27.5902ZM17.6967 23.9171L15.3995 21.9877L15.351 22.0454L15.3055 22.1055L17.6967 23.9171ZM14.4918 28.1476L12.1005 29.9592L14.4918 33.1156L16.8831 29.9592L14.4918 28.1476ZM11.2869 23.9171L13.6781 22.1055L13.6326 22.0454L13.5841 21.9877L11.2869 23.9171ZM1.39344 23.6406H-1.60656V26.6406H1.39344V23.6406ZM1.39344 6.35954V3.35954H-1.60656V6.35954H1.39344ZM27.5902 6.35954H30.5902V3.35954H27.5902V6.35954ZM28.2869 1.97705H0.696721V7.97705H28.2869V1.97705ZM0.696721 1.97705C-1.32793 1.97705 -3 3.60207 -3 5.6683H3C3 6.96033 1.94105 7.97705 0.696721 7.97705V1.97705ZM-3 5.6683V24.3319H3V5.6683H-3ZM-3 24.3319C-3 26.3981 -1.32793 28.0231 0.696721 28.0231V22.0231C1.94105 22.0231 3 23.0399 3 24.3319H-3ZM0.696721 28.0231H10.3672V22.0231H0.696721V28.0231ZM7.97747 26.8367L11.5447 31.5372L16.3242 27.91L12.757 23.2095L7.97747 26.8367ZM11.6372 31.6531C12.2311 32.3602 13.2175 33.0001 14.4918 33.0001V27.0001C15.3202 27.0001 15.9164 27.4188 16.2316 27.7941L11.6372 31.6531ZM14.4918 33.0001C15.7661 33.0001 16.7525 32.3602 17.3464 31.6531L12.752 27.7941C13.0672 27.4188 13.6634 27.0001 14.4918 27.0001V33.0001ZM17.4458 31.5282L20.9851 26.8277L16.192 23.2186L12.6526 27.919L17.4458 31.5282ZM18.5885 28.0231H28.259V22.0231H18.5885V28.0231ZM28.259 28.0231C30.2837 28.0231 31.9557 26.3981 31.9557 24.3319H25.9557C25.9557 23.0399 27.0147 22.0231 28.259 22.0231V28.0231ZM31.9557 24.3319V5.6683H25.9557V24.3319H31.9557ZM31.948 5.88372C32.1117 3.61017 30.2655 1.97705 28.2869 1.97705V7.97705C27.0886 7.97705 25.8555 6.95223 25.9635 5.45287L31.948 5.88372ZM27.5902 20.6406H18.2541V26.6406H27.5902V20.6406ZM18.2541 20.6406C16.9798 20.6406 15.9935 21.2805 15.3995 21.9877L19.9939 25.8466C19.6787 26.2219 19.0825 26.6406 18.2541 26.6406V20.6406ZM15.3055 22.1055L12.1005 26.336L16.8831 29.9592L20.088 25.7287L15.3055 22.1055ZM16.8831 26.336L13.6781 22.1055L8.89562 25.7287L12.1005 29.9592L16.8831 26.336ZM13.5841 21.9877C12.9901 21.2805 12.0038 20.6406 10.7295 20.6406V26.6406C9.90116 26.6406 9.30494 26.2219 8.9897 25.8466L13.5841 21.9877ZM10.7295 20.6406H1.39344V26.6406H10.7295V20.6406ZM4.39344 23.6406V6.35954H-1.60656V23.6406H4.39344ZM1.39344 9.35954H27.5902V3.35954H1.39344V9.35954ZM24.5902 6.35954V23.6406H30.5902V6.35954H24.5902Z" fill="white" mask="url(#path-3-inside-2)"/>
</g>
<defs>
<clipPath id="clip0">
<rect width="34" height="30" fill="white"/>
</clipPath>
</defs>
</svg>
