<svg width="20" height="20" viewBox="0 0 20 20" fill="none" xmlns="http://www.w3.org/2000/svg">
<path d="M13.7502 5.00001V14.5833C13.7502 16.425 12.2585 17.9167 10.4168 17.9167C8.57516 17.9167 7.0835 16.425 7.0835 14.5833V4.16668C7.0835 3.01668 8.01683 2.08334 9.16683 2.08334C10.3168 2.08334 11.2502 3.01668 11.2502 4.16668V12.9167C11.2502 13.375 10.8752 13.75 10.4168 13.75C9.9585 13.75 9.5835 13.375 9.5835 12.9167V5.00001H8.3335V12.9167C8.3335 14.0667 9.26683 15 10.4168 15C11.5668 15 12.5002 14.0667 12.5002 12.9167V4.16668C12.5002 2.32501 11.0085 0.833344 9.16683 0.833344C7.32516 0.833344 5.8335 2.32501 5.8335 4.16668V14.5833C5.8335 17.1167 7.8835 19.1667 10.4168 19.1667C12.9502 19.1667 15.0002 17.1167 15.0002 14.5833V5.00001H13.7502Z" fill="#A7A8B6"/>
</svg>
