<svg xmlns="http://www.w3.org/2000/svg" fill="none" preserveAspectRatio="none" viewBox="0 0 12 12">
  <g clip-path="url(#clip666)">
    <path fill="#000" d="M3.913 8.571h4.174c.26 0 .435.172.435.429s-.174.429-.435.429H2.87c-.261 0-.435-.172-.435-.429V3.857c0-.257.174-.428.435-.428.26 0 .434.171.434.428v4.114l8-7.885a.425.425 0 0 1 .609 0 .41.41 0 0 1 0 .6l-8 7.885zm6.522 2.572V4.714c0-.171.174-.428.435-.428.26 0 .434.257.434.428v6.857c0 .258-.174.429-.434.429H.435C.174 12 0 11.829 0 11.571V1.286C0 1.114.174.857.435.857H7.39c.261 0 .435.257.435.429 0 .171-.174.428-.435.428H.87v9.429h9.565z"/>
  </g>
  <defs>
    <clipPath id="clip666">
      <path fill="#fff" d="M0 0h12v12H0z"/>
    </clipPath>
  </defs>
</svg>
