<svg width="29" height="25" viewBox="0 0 29 25" fill="none" xmlns="http://www.w3.org/2000/svg">
<g clip-path="url(#clip0)">
<path d="M10.5623 0H18.4377C24.2748 0 29 4.7048 29 10.5166C29 16.3284 24.2748 21.1255 18.4377 21.1255H13.6198L9.07987 24.8155C8.52396 25.2768 7.78275 24.8155 7.78275 24.1697V20.6642C3.24281 19.4649 0 15.3137 0 10.5166C0 4.7048 4.72524 0 10.5623 0ZM18.4377 1.56827H10.5623C5.65176 1.56827 1.57508 5.62731 1.57508 10.5166C1.57508 14.7601 4.53994 18.4502 8.70926 19.2804C9.07987 19.3727 9.35783 19.7417 9.35783 20.1107V22.5092L12.7859 19.7417C12.8786 19.6494 13.0639 19.5572 13.3419 19.5572H18.4377C23.4409 19.5572 27.4249 15.4982 27.4249 10.5166C27.4249 5.62731 23.4409 1.56827 18.4377 1.56827Z" fill="white"/>
</g>
<defs>
<clipPath id="clip0">
<rect width="29" height="25" fill="white"/>
</clipPath>
</defs>
</svg>
