<svg width="20" height="20" viewBox="0 0 20 20" fill="none" xmlns="http://www.w3.org/2000/svg">
<path d="M18.3337 5H16.667C16.2087 5 15.8337 5.375 15.8337 5.83333V13.3333C15.8337 13.7917 16.2087 14.1667 16.667 14.1667H18.3337V5ZM1.80866 10.9333C1.71699 11.1417 1.66699 11.3667 1.66699 11.6V12.5C1.66699 13.4167 2.41699 14.1667 3.33366 14.1667H7.91699L7.15033 18.0417C7.10866 18.225 7.13366 18.425 7.21699 18.5917C7.40866 18.9667 7.65033 19.3083 7.95033 19.6083L8.33366 20L13.6753 14.6583C13.992 14.3417 14.167 13.9167 14.167 13.475V6.95C14.167 5.875 13.292 5 12.217 5H5.46699C4.87533 5 4.33366 5.30833 4.03366 5.80833L1.80866 10.9333Z" fill="#A7A8B6"/>
</svg>
