<svg width="37" height="34" viewBox="0 0 37 34" fill="none" xmlns="http://www.w3.org/2000/svg">
    <path d="M7.65618 28.123C7.65618 28.159 7.65618 28.159 7.65618 28.1949H7.72827C7.69222 27.8353 7.62013 27.3678 7.51199 26.7564H2.53768V2.51615H28.2383V6.86788C28.4906 6.83192 28.7429 6.79595 29.0313 6.79595C29.2476 6.79595 29.4639 6.83192 29.6801 6.86788V1.11353H1.1319V28.1949H7.69222C7.69222 28.159 7.69222 28.159 7.65618 28.123Z" fill="#2273AE"/>
    <path d="M8.48525 28.8063H0.483093V0.466064H30.2929V7.55112L29.3197 7.44322C29.0674 7.40726 28.8151 7.40726 28.5627 7.44322L27.6255 7.58708V3.16342H3.18653V26.1449H8.08874L8.16084 26.6843C8.26897 27.2957 8.34106 27.7633 8.37711 28.1229L8.48525 28.8063ZM1.7447 27.5475H7.00737C7.00737 27.4756 7.00737 27.4396 6.97133 27.3677H1.88888V1.86869H28.8511V6.14849C28.9232 6.14849 28.9592 6.14849 29.0313 6.14849V1.72483H1.70865V27.5475H1.7447Z" fill="#2273AE"/>
    <path d="M6.97131 6.14868V6.86798V32.5108V33.2301H7.69223H34.8347H35.5556V32.5108V6.86798V6.14868H34.8347H7.69223H6.97131ZM8.41314 7.58727H34.1138V31.8275H8.41314V7.58727Z" fill="#2273AE"/>
    <path d="M36.1684 33.8773H6.35858V5.53711H36.1684V33.8773ZM7.58414 32.6185H34.9068V6.79588H7.58414V32.6185ZM34.7266 32.4387H7.76437V6.93974H34.7266V32.4387ZM9.02597 31.18H33.465V8.1985H9.02597V31.18Z" fill="#2273AE"/>
</svg>
