<svg width="37" height="34" viewBox="0 0 37 34" fill="none" xmlns="http://www.w3.org/2000/svg">
<path d="M7.65618 28.123C7.65618 28.159 7.65618 28.159 7.65618 28.1949H7.72827C7.69222 27.8353 7.62013 27.3678 7.51199 26.7564H2.53768V2.51615H28.2383V6.86788C28.4906 6.83192 28.7429 6.79595 29.0313 6.79595C29.2476 6.79595 29.4639 6.83192 29.6801 6.86788V1.11353H1.1319V28.1949H7.69222C7.69222 28.159 7.69222 28.159 7.65618 28.123Z" fill="#2273AE"/>
<path d="M8.48525 28.8063H0.483093V0.466064H30.2929V7.55112L29.3197 7.44322C29.0674 7.40726 28.8151 7.40726 28.5627 7.44322L27.6255 7.58708V3.16342H3.18653V26.1449H8.08874L8.16084 26.6843C8.26897 27.2957 8.34106 27.7633 8.37711 28.1229L8.48525 28.8063ZM1.7447 27.5475H7.00737C7.00737 27.4756 7.00737 27.4396 6.97133 27.3677H1.88888V1.86869H28.8511V6.14849C28.9232 6.14849 28.9592 6.14849 29.0313 6.14849V1.72483H1.70865V27.5475H1.7447Z" fill="#2273AE"/>
<path d="M6.97131 6.14868V6.86798V32.5108V33.2301H7.69223H34.8347H35.5556V32.5108V6.86798V6.14868H34.8347H7.69223H6.97131ZM8.41314 7.58727H34.1138V31.8275H8.41314V7.58727Z" fill="#2273AE"/>
<path d="M36.1684 33.8773H6.35858V5.53711H36.1684V33.8773ZM7.58414 32.6185H34.9068V6.79588H7.58414V32.6185ZM34.7266 32.4387H7.76437V6.93974H34.7266V32.4387ZM9.02597 31.18H33.465V8.1985H9.02597V31.18Z" fill="#2273AE"/>
<path d="M15.4781 19.168L18.1094 23.3039H16.2711L14.5409 20.3188L12.8107 23.3039H10.9724L13.6037 19.168L11.2968 15.2478H13.027L14.5409 18.0171L16.1629 15.2478H17.8931L15.4781 19.168Z" fill="#2273AE"/>
<path d="M24.5976 22.0452V23.4118H19.2989V15.3557H20.8128V22.0092H24.5976V22.0452Z" fill="#2273AE"/>
<path d="M31.4824 21.0022C31.4824 21.6855 31.1219 22.261 30.5452 22.7285C29.9685 23.196 29.2836 23.5197 28.2383 23.5197C27.8778 23.5197 27.6615 23.5197 27.3011 23.4118C26.9406 23.3039 26.7244 23.3039 26.5081 23.196C26.2918 23.0882 26.0395 23.0882 25.9313 22.9803C25.7151 22.8724 25.5709 22.8724 25.4628 22.7645L25.3546 22.6566L25.9313 21.3978C26.0395 21.3978 26.1476 21.5057 26.2918 21.6136C26.3999 21.7215 26.7604 21.8294 27.0848 21.9732C27.4453 22.0811 27.7697 22.189 28.1301 22.189C28.5987 22.189 29.0673 22.0811 29.2836 21.8294C29.644 21.6136 29.7522 21.3619 29.7522 21.0382C29.7522 20.8224 29.6441 20.5706 29.3917 20.4627C29.2836 20.2469 29.0313 20.1031 28.7069 20.1031C28.3464 19.9952 28.022 19.9952 27.6615 19.8873C27.3011 19.7794 26.9767 19.6715 26.6162 19.5277C26.2558 19.3838 26.0395 19.168 25.8232 18.8443C25.6069 18.4847 25.4628 18.161 25.4628 17.6934C25.4628 17.0101 25.8232 16.4347 26.3999 15.9671C26.9767 15.4996 27.6615 15.2838 28.5987 15.2838C29.0673 15.2838 29.5359 15.2838 29.9685 15.3917C30.4371 15.4996 30.7615 15.6075 30.9057 15.7514L31.2661 15.8592L30.4731 17.118C29.8964 16.7584 29.3196 16.6505 28.5266 16.6505C28.1662 16.6505 27.8418 16.7584 27.4813 16.8663C27.265 16.9742 27.0127 17.2259 27.0127 17.5496C27.0127 17.7654 27.1209 18.0171 27.3732 18.125C27.5894 18.2329 27.8418 18.3408 28.1662 18.4847C28.4906 18.6285 28.8511 18.5926 29.2115 18.7005C29.572 18.8084 29.8964 18.9162 30.2568 19.0601C30.6173 19.168 30.8336 19.4198 31.0498 19.7434C31.2661 20.0671 31.4824 20.5347 31.4824 21.0022Z" fill="#2273AE"/>
</svg>
