<svg width="33" height="32" viewBox="0 0 33 32" fill="none" xmlns="http://www.w3.org/2000/svg">
<path d="M0.838348 1.07092V1.86214V29.8067V30.5979H1.63136H31.1889H31.9819V29.8067V1.86214V1.07092H31.1528H1.59531H0.838348ZM2.38832 2.6174H30.3959V29.0155H2.38832V2.6174Z" fill="#2273AE"/>
<path d="M32.5947 31.1733H0.189545V0.423462H32.5586V31.1733H32.5947ZM1.45115 29.9505H31.297V1.71819H1.45115V29.9505ZM31.0087 29.6268H1.73951V1.96995H31.0087V29.6268ZM3.00111 28.368H29.7471V3.22871H3.00111V28.368Z" fill="#2273AE"/>
<path d="M8.19166 14.6654L1.01855 22.1101C1.0546 22.4338 1.09065 22.7575 1.09065 23.0811L1.81156 23.8004L8.40793 16.9671L17.3833 23.0452L18.3926 21.5706L8.19166 14.6654Z" fill="#2273AE"/>
<path d="M1.81156 24.6636L0.441816 23.3689V23.1172C0.441816 22.7935 0.405771 22.4698 0.369725 22.1461L0.333679 21.8584L8.08352 13.8383L19.2577 21.3908L17.5636 23.9084L8.51607 17.7584L1.81156 24.6636ZM1.66737 22.7935L1.77551 22.9014L8.33584 16.14L17.2391 22.1461L17.5275 21.7145L8.29979 15.4567L1.66737 22.29C1.66737 22.4698 1.66737 22.6496 1.66737 22.7935Z" fill="#2273AE"/>
<path d="M13.8149 19.5566L12.5893 18.2978L20.8438 10.2417L31.4052 17.2188L30.432 18.6934L21.0601 12.5075L13.8149 19.5566Z" fill="#2273AE"/>
<path d="M13.8149 20.4558L11.6882 18.2979L20.7717 9.45056L32.3063 17.0391L30.6482 19.5566L21.1682 13.2988L13.8149 20.4558ZM13.4544 18.3338L13.8149 18.6935L20.9519 11.7163L30.2157 17.8303L30.5041 17.3988L20.8798 11.069L13.4544 18.3338Z" fill="#2273AE"/>
<path d="M2.13593 9.0911L2.06384 7.32883H2.13593H2.17198C4.69518 7.32883 7.61489 6.71743 7.72303 1.97009L9.48927 2.00605C9.38113 5.24288 8.08348 9.0911 2.13593 9.0911Z" fill="#2273AE"/>
<path d="M2.13593 9.7383H1.4871L1.37897 6.71726H2.02779C4.62309 6.71726 6.96606 6.14183 7.03815 1.96992V1.35852L10.066 1.43045V2.04185C9.9939 7.00498 7.18233 9.7383 2.13593 9.7383ZM2.71266 7.97603V8.47953C6.49746 8.29971 8.51603 6.35762 8.80439 2.65325H8.29975C7.90325 7.40059 4.4789 7.9041 2.71266 7.97603Z" fill="#2273AE"/>
</svg>
