<svg width="13" height="13"  viewBox="0 0 13 13" fill="none" xmlns="http://www.w3.org/2000/svg">
<path d="M11.6188 0.8125H7.71875C7.475 0.8125 7.3125 0.65 7.3125 0.40625C7.3125 0.1625 7.475 0 7.71875 0H12.5938C12.8375 0 13 0.1625 13 0.40625V5.28125C13 5.525 12.8375 5.6875 12.5938 5.6875C12.35 5.6875 12.1875 5.525 12.1875 5.28125V1.38125L4.79375 8.775C4.63125 8.9375 4.3875 8.9375 4.225 8.775C4.0625 8.6125 4.0625 8.36875 4.225 8.20625L11.6188 0.8125ZM9.75 12.1875V6.09375C9.75 5.85 9.9125 5.6875 10.1562 5.6875C10.4 5.6875 10.5625 5.85 10.5625 6.09375V12.5938C10.5625 12.8375 10.4 13 10.1562 13H0.40625C0.1625 13 0 12.8375 0 12.5938V2.84375C0 2.6 0.1625 2.4375 0.40625 2.4375H6.90625C7.15 2.4375 7.3125 2.6 7.3125 2.84375C7.3125 3.0875 7.15 3.25 6.90625 3.25H0.8125V12.1875H9.75Z" fill="black"/>
</svg>
