<svg width="36" height="34" viewBox="0 0 36 34" fill="none" xmlns="http://www.w3.org/2000/svg">
<path d="M7.48777 28.123C7.48777 28.159 7.48777 28.159 7.48777 28.1949H7.55987C7.52382 27.8353 7.45174 27.3678 7.3436 26.7564H2.36928V2.51615H28.0699V6.86788C28.3222 6.83192 28.5745 6.79595 28.8629 6.79595C29.0792 6.79595 29.2955 6.83192 29.5117 6.86788V1.11353H0.963501V28.1949H7.52383C7.52383 28.159 7.52382 28.159 7.48777 28.123Z" fill="#2273AE"/>
<path d="M8.13662 28.8063H0.314697V0.466064H30.1245V7.55112L29.1513 7.44322C28.899 7.40726 28.6467 7.40726 28.3943 7.44322L27.4211 7.55112V3.12745H2.98208V26.1089H7.8843L8.28081 28.8063H8.13662ZM1.57629 27.5475H6.83898L6.80293 27.3677H1.72048V1.86869H28.6827V6.14849C28.7548 6.14849 28.7908 6.14849 28.8629 6.14849V1.72483H1.54025V27.5475H1.57629Z" fill="#2273AE"/>
<path d="M6.80286 6.14868V6.86798V32.5108V33.2301H7.52377H34.6662H35.3871V32.5108V6.86798V6.14868H34.6662H7.52377H6.80286ZM8.24469 7.58727H33.9453V31.8275H8.24469V7.58727Z" fill="#2273AE"/>
<path d="M36 33.8773H6.19012V5.53711H36V33.8773ZM7.41568 32.6185H34.7384V6.79588H7.41568V32.6185ZM34.5581 32.4387H7.59591V6.93974H34.5581V32.4387ZM8.8575 31.18H33.2965V8.1985H8.8575V31.18Z" fill="#2273AE"/>
<path d="M13.4714 20.3186C13.6156 20.3546 13.8318 20.3546 14.0481 20.3546C15.0574 20.3546 15.9225 20.1028 16.4992 19.5634C16.9318 19.1318 17.1841 18.5204 17.1841 17.8011C17.1841 17.0818 16.8597 16.4344 16.3911 16.0748C15.8864 15.6792 15.1295 15.4634 14.0842 15.4634C13.0388 15.4634 12.3179 15.5353 11.7772 15.6072V23.016H13.4714V20.3186ZM13.4714 16.7941C13.5795 16.7581 13.8318 16.7221 14.1562 16.7221C14.9853 16.7221 15.4899 17.1178 15.4899 17.837C15.4899 18.5923 14.9493 19.0598 14.0121 19.0598C13.7597 19.0598 13.5795 19.0598 13.4353 19.0239V16.7941H13.4714Z" fill="#2273AE"/>
<path d="M23.5282 22.1168C24.2491 21.5054 24.7898 20.4984 24.7898 19.0958C24.7898 17.7651 24.2851 16.866 23.5282 16.2546C22.8072 15.7151 21.8701 15.4634 20.4643 15.4634C19.5992 15.4634 18.8062 15.5353 18.1573 15.6072V22.98C18.5899 23.0519 19.2027 23.0879 20.0678 23.0879C21.5456 23.0879 22.7351 22.7642 23.5282 22.1168ZM19.8515 16.83C19.9957 16.7941 20.248 16.7581 20.6085 16.7581C22.0863 16.7581 22.9875 17.5853 22.9875 19.1318C22.9875 20.93 21.9782 21.7572 20.4282 21.7572C20.2119 21.7572 19.9957 21.7572 19.8515 21.7212V16.83Z" fill="#2273AE"/>
<path d="M27.4932 19.995H30.1967V18.6284H27.4932V16.9021H30.3769V15.5354H25.7991V23.0161H27.4932V19.995Z" fill="#2273AE"/>
</svg>
