<svg width="24" height="24" viewBox="0 0 24 24" fill="none" xmlns="http://www.w3.org/2000/svg">
<path d="M7 3L17 3V12H7V3Z" stroke="#0F6CAE" stroke-width="2"/>
<path d="M19 12H21C22.1046 12 23 12.8954 23 14V19C23 20.1046 22.1046 21 21 21H19.4415C18.5807 21 17.8164 20.4491 17.5442 19.6325L17.4558 19.3675C17.1836 18.5509 16.4193 18 15.5585 18H8.44152C7.58066 18 6.81638 18.5509 6.54415 19.3675L6.45585 19.6325C6.18362 20.4491 5.41934 21 4.55848 21H3C1.89543 21 1 20.1046 1 19V14C1 12.8954 1.89543 12 3 12H5" stroke="#0F6CAE" stroke-width="2"/>
<path d="M9 21H15" stroke="#0F6CAE" stroke-width="2"/>
</svg>
