<svg width="24" height="24" viewBox="0 0 24 24" fill="none" xmlns="http://www.w3.org/2000/svg">
<rect x="9" y="18" width="6" height="2" rx="1" fill="#0F6CAE"/>
<path d="M4 12C4 11.4477 4.44772 11 5 11H6V15H5C4.44772 15 4 14.5523 4 14V12Z" fill="#0F6CAE"/>
<path d="M20 14C20 14.5523 19.5523 15 19 15L18 15L18 11L19 11C19.5523 11 20 11.4477 20 12L20 14Z" fill="#0F6CAE"/>
<circle cx="12" cy="3" r="1" fill="#0F6CAE"/>
<path d="M10.5 8L12 3L13.5 8H10.5Z" fill="#0F6CAE"/>
<path fill-rule="evenodd" clip-rule="evenodd" d="M5 13C5 9.68629 7.68629 7 11 7H13C16.3137 7 19 9.68629 19 13V14C19 15.6569 17.6569 17 16 17H8C6.34315 17 5 15.6569 5 14V13ZM11 13C11 14.1046 10.1046 15 9 15C7.89543 15 7 14.1046 7 13C7 11.8954 7.89543 11 9 11C10.1046 11 11 11.8954 11 13ZM15 15C16.1046 15 17 14.1046 17 13C17 11.8954 16.1046 11 15 11C13.8954 11 13 11.8954 13 13C13 14.1046 13.8954 15 15 15Z" fill="#0F6CAE"/>
</svg>
