<svg width="20" height="20" viewBox="0 0 20 20" fill="none" xmlns="http://www.w3.org/2000/svg">
<path d="M1.66699 16.6667H3.33366C3.79199 16.6667 4.16699 16.2917 4.16699 15.8333V8.33332C4.16699 7.87499 3.79199 7.49999 3.33366 7.49999H1.66699V16.6667ZM18.192 10.7333C18.2837 10.525 18.3337 10.3 18.3337 10.0667V9.16666C18.3337 8.24999 17.5837 7.49999 16.667 7.49999H12.0837L12.8503 3.62499C12.892 3.44166 12.867 3.24166 12.7837 3.07499C12.592 2.69999 12.3503 2.35832 12.0503 2.05832L11.667 1.66666L6.32533 7.00832C6.00866 7.32499 5.83366 7.74999 5.83366 8.19166V14.725C5.83366 15.7917 6.70866 16.6667 7.78366 16.6667H14.542C15.1253 16.6667 15.6753 16.3583 15.9753 15.8583L18.192 10.7333Z" fill="#A7A8B6" transform="translate(20,20) rotate(180)" />
</svg>
