<svg width="24" height="24" viewBox="0 0 24 24" fill="none" xmlns="http://www.w3.org/2000/svg">
<path d="M12 17.5C10.9668 17.5 9.71125 17.2915 8.80771 16.6053C7.95292 15.9561 6.53753 15.3901 5.75233 16.1219C3.4654 18.2535 6.53432 21 9.66057 21H14.3394C17.4657 21 20.5346 18.2535 18.2477 16.1219C17.4625 15.3901 16.0471 15.9561 15.1923 16.6053C14.2888 17.2915 13.0332 17.5 12 17.5Z" stroke="#0F6CAE" stroke-width="2"/>
<path d="M12 14C10.177 14 8.97869 13.3357 8.21089 12.3599C7.41557 11.3491 7 9.89592 7 8.21739C7 6.62694 7.51066 5.63694 8.27822 5.01716C9.08294 4.36739 10.3236 4 12 4C13.6764 4 14.9171 4.36739 15.7218 5.01716C16.4893 5.63694 17 6.62694 17 8.21739C17 9.89592 16.5844 11.3491 15.7891 12.3599C15.0213 13.3357 13.823 14 12 14Z" stroke="#0F6CAE" stroke-width="2"/>
</svg>
