<svg width="33" height="32" viewBox="0 0 33 32" fill="none" xmlns="http://www.w3.org/2000/svg">
<path d="M0.840942 1.07092V1.86214V29.8067V30.5979H1.63395H31.1915H31.9845V29.8067V1.86214V1.07092H31.1915H1.63395H0.840942ZM2.42696 2.6174H30.4345V29.0155H2.42696V2.6174Z" fill="#2273AE"/>
<path d="M32.5973 31.1733H0.22821V0.423462H32.5973V31.1733ZM1.48981 29.9505H31.3357V1.71819H1.48981V29.9505ZM31.0473 29.6268H1.77818V1.96995H31.0473V29.6268ZM3.03978 28.368H29.7857V3.22871H3.03978V28.368Z" fill="#2273AE"/>
<path d="M12.1232 8.40039C11.6186 8.43636 11.186 8.93986 11.186 9.47933V21.9231C11.186 22.6424 12.0872 23.1819 12.7 22.8222L23.0811 16.6003C23.6939 16.2407 23.6939 15.1258 23.0811 14.7661L12.7 8.54425C12.5197 8.43636 12.3035 8.40039 12.1232 8.40039Z" fill="#2273AE"/>
<path d="M12.2674 23.3617C12.0151 23.3617 11.7628 23.2898 11.5104 23.1459C11.0418 22.8582 10.7174 22.3907 10.7174 21.8872V9.44338C10.7174 8.68812 11.3302 7.96883 12.0872 7.93286C12.3395 7.93286 12.6639 8.00479 12.9523 8.14865L23.3335 14.3705C23.766 14.6223 24.0183 15.1258 24.0183 15.6653C24.0183 16.2047 23.766 16.7083 23.3335 16.96L12.9523 23.1819C12.736 23.3258 12.4837 23.3617 12.2674 23.3617ZM12.1593 8.83198C11.8709 8.86794 11.6186 9.15566 11.6546 9.44338V21.8872C11.6546 22.103 11.8349 22.2828 11.979 22.3907C12.1232 22.4626 12.3395 22.4986 12.4837 22.4266L22.8649 16.2047C23.009 16.1328 23.1172 15.917 23.1172 15.6653C23.1172 15.4135 23.009 15.2337 22.8649 15.1258L12.4837 8.90391C12.3755 8.86795 12.2314 8.83198 12.1593 8.83198Z" fill="#2273AE"/>
<path d="M13.2046 11.3137L20.5219 15.7014L13.2046 20.0531V11.3137Z" fill="white"/>
</svg>
