<svg width="36" height="34" viewBox="0 0 36 34" fill="none" xmlns="http://www.w3.org/2000/svg">
<path d="M12.9163 15.6431H10.6454C10.6094 15.6431 10.6094 15.6431 10.5733 15.6431C10.4291 15.679 10.321 15.8229 10.321 15.9667V22.8C10.321 22.9439 10.4291 23.0878 10.5733 23.1237C10.6094 23.1237 10.6094 23.1237 10.6454 23.1237H12.9163C14.9709 23.1237 16.4488 21.5772 16.4488 19.3115C16.4127 17.0816 15.0069 15.6431 12.9163 15.6431ZM12.8442 21.9728H11.5105V16.7939H12.8442C15.043 16.7939 15.2232 18.772 15.2232 19.3474C15.1872 21.0018 14.3221 21.9728 12.8442 21.9728Z" fill="#2273AE"/>
<path d="M12.9162 23.4116H10.5733C10.2489 23.3397 10.0686 23.0879 10.0686 22.8002V15.9669C10.0686 15.6792 10.2489 15.4274 10.5372 15.3915H10.5733H10.6814H12.9523C15.1871 15.3915 16.7011 16.9739 16.7011 19.3476C16.665 21.7213 15.115 23.4116 12.9162 23.4116ZM10.6454 15.931C10.6093 15.931 10.5733 15.9669 10.5733 15.9669V22.8002C10.5733 22.8362 10.5733 22.8721 10.6093 22.8721H12.8802C14.7906 22.8721 16.1243 21.4336 16.1243 19.3476C16.1243 17.2616 14.8627 15.931 12.9162 15.931H10.6454ZM12.8442 22.2607H11.2581V16.5424H12.8442C14.7906 16.5424 15.4755 18.0169 15.4755 19.3836C15.4755 21.1458 14.4662 22.2607 12.8442 22.2607ZM11.7988 21.7213H12.8442C14.1779 21.7213 14.9348 20.8581 14.9348 19.3836C14.9348 18.7002 14.7185 17.0818 12.8442 17.0818H11.7988V21.7213Z" fill="#2273AE"/>
<path d="M20.8103 15.571C18.7557 15.571 17.3499 17.1175 17.3499 19.4193C17.3499 21.721 18.7557 23.2675 20.7382 23.2675C23.1173 23.2675 24.1626 21.3254 24.1626 19.3833C24.1626 17.1175 22.7929 15.571 20.8103 15.571ZM20.7743 22.0807C19.2604 22.0807 18.5755 20.678 18.5755 19.3473C18.5755 18.0526 19.1522 16.686 20.7743 16.686C22.3964 16.686 22.937 18.1245 22.937 19.3473C22.937 19.9947 22.7929 22.0807 20.7743 22.0807Z" fill="#2273AE"/>
<path d="M20.7382 23.5194C18.5755 23.5194 17.0976 21.8291 17.0976 19.4194C17.0976 16.9738 18.5755 15.3195 20.8103 15.3195C22.937 15.3195 24.4509 16.9738 24.4509 19.3835C24.4509 21.3975 23.2975 23.5194 20.7382 23.5194ZM20.8103 15.823C18.8999 15.823 17.6383 17.2615 17.6383 19.3835C17.6383 21.5054 18.8999 22.944 20.7382 22.944C22.937 22.944 23.9102 21.1457 23.9102 19.3475C23.9102 17.2615 22.6126 15.823 20.8103 15.823ZM20.7743 22.3685C19.0801 22.3685 18.3232 20.8221 18.3232 19.3835C18.3232 17.9808 18.972 16.4344 20.8103 16.4344C22.6126 16.4344 23.2614 18.0168 23.2614 19.3475C23.2254 20.8221 22.5765 22.3685 20.7743 22.3685ZM20.7743 16.9738C18.972 16.9738 18.8278 18.808 18.8278 19.3835C18.8278 20.5703 19.4406 21.8291 20.7382 21.8291C22.4684 21.8291 22.6486 20.1028 22.6486 19.3835C22.6847 18.9519 22.5765 16.9738 20.7743 16.9738Z" fill="#2273AE"/>
<path d="M28.416 16.6863C29.2451 16.6143 30.002 17.1538 30.1823 17.945C30.2183 18.0889 30.3625 18.1608 30.5067 18.1608H31.0474C31.0834 18.1608 31.1555 18.1608 31.1916 18.1249C31.2276 18.0889 31.2636 18.0889 31.2997 18.0529C31.3718 17.981 31.3718 17.8731 31.3718 17.7652C31.3357 17.5854 31.2636 17.3696 31.1916 17.1898C30.759 16.1468 29.7858 15.5354 28.4521 15.5354C26.1452 15.5354 25.0998 17.5494 25.0998 19.3836C25.0998 21.6494 26.4335 23.1959 28.416 23.1959C29.6055 23.2678 30.723 22.5485 31.1555 21.4336C31.2276 21.2898 31.2636 21.1459 31.2997 21.038C31.3357 20.9301 31.2997 20.8222 31.2636 20.7503C31.2276 20.7143 31.1916 20.6784 31.1555 20.6784C31.1195 20.6424 31.0474 20.6424 31.0113 20.6424H30.4706C30.3265 20.6424 30.2183 20.7143 30.1823 20.8582C29.8579 21.7213 29.3172 22.081 28.4521 22.081C26.9021 22.081 26.3254 20.6424 26.3254 19.4196C26.3254 18.1968 26.8661 16.6863 28.416 16.6863Z" fill="#2273AE"/>
<path d="M28.5602 23.5194C28.5241 23.5194 28.452 23.5194 28.416 23.5194C26.2893 23.5194 24.8114 21.865 24.8114 19.4554C24.8114 17.4773 25.9288 15.3195 28.416 15.3195C29.8218 15.3195 30.9031 15.9668 31.3717 17.1177C31.4438 17.2975 31.5159 17.4773 31.588 17.7291C31.624 17.9089 31.588 18.0887 31.4438 18.2326C31.4078 18.3045 31.3357 18.3405 31.2636 18.3765C31.1915 18.4124 31.0834 18.4484 30.9752 18.4484H30.4345C30.1822 18.4484 29.9659 18.3045 29.8578 18.0528C29.7136 17.4054 29.1369 16.9738 28.5241 16.9738C28.4881 16.9738 28.416 16.9738 28.3799 16.9738H28.3439C26.6137 16.9738 26.5056 18.9879 26.5056 19.3835C26.5056 19.7791 26.5776 21.7931 28.3439 21.7931C29.1008 21.7931 29.5334 21.5054 29.8218 20.7501C29.9299 20.5343 30.1101 20.3905 30.3624 20.3545H30.9031C31.0113 20.3545 31.1194 20.3905 31.2276 20.4624C31.2636 20.4624 31.3357 20.5343 31.3717 20.6063C31.4799 20.7501 31.5159 20.9659 31.4799 21.1457C31.4438 21.2896 31.3717 21.4335 31.2996 21.5773C30.9392 22.7642 29.8218 23.5194 28.5602 23.5194ZM28.416 15.8589C26.3253 15.8589 25.3521 17.7291 25.3521 19.4194C25.3521 21.5414 26.5776 22.944 28.416 22.944C29.4974 23.0159 30.5066 22.3685 30.9031 21.3615C30.9752 21.2177 31.0113 21.1098 31.0473 20.9659L31.0113 20.894H30.4706C30.038 21.865 29.4253 22.2966 28.452 22.2966C26.6858 22.2966 26.073 20.7142 26.073 19.3475C26.073 17.9808 26.6858 16.3984 28.416 16.3984C28.4881 16.3984 28.5241 16.3984 28.5962 16.3984C29.4613 16.3984 30.2543 17.0098 30.4706 17.8729H31.0473L31.3717 17.7651L31.1194 17.837C31.0834 17.6572 31.0113 17.4773 30.9392 17.3335C30.5066 16.3624 29.6415 15.8589 28.416 15.8589Z" fill="#2273AE"/>
<path d="M7.25699 28.123C7.25699 28.159 7.25699 28.159 7.25699 28.1949H7.32908C7.29303 27.8353 7.22094 27.3678 7.1128 26.7564H2.13849V2.51615H27.8391V6.86788C28.0914 6.83192 28.3438 6.79595 28.6321 6.79595C28.8484 6.79595 29.0647 6.83192 29.2809 6.86788V1.11353H0.696655V28.1949H7.25699C7.25699 28.159 7.25699 28.159 7.25699 28.123Z" fill="#2273AE"/>
<path d="M7.90585 28.8063H0.0839233V0.466064H29.8938V7.55112L28.9205 7.44322C28.6682 7.40726 28.4159 7.40726 28.1636 7.44322L27.1903 7.55112V3.12745H2.75131V26.1089H7.65353L8.05004 28.8063H7.90585ZM1.34553 27.5475H6.60821L6.57216 27.3677H1.48971V1.86869H28.4519V6.14849C28.524 6.14849 28.5601 6.14849 28.6322 6.14849V1.72483H1.30948V27.5475H1.34553Z" fill="#2273AE"/>
<path d="M6.53604 6.14868V6.86798V32.5108V33.2301H7.25696H34.3994H35.1203V32.5108V6.86798V6.14868H34.3994H7.25696H6.53604ZM7.97787 7.58727H33.6785V31.8275H7.97787V7.58727Z" fill="#2273AE"/>
<path d="M35.7331 33.8773H5.92331V5.53711H35.7331V33.8773ZM7.18491 32.6185H34.5076V6.79588H7.18491V32.6185ZM34.3274 32.4387H7.36514V6.93974H34.3274V32.4387ZM8.59069 31.18H33.0297V8.1985H8.59069V31.18Z" fill="#2273AE"/>
</svg>
